<svg width="28" height="28" viewBox="0 0 28 28" fill="none" xmlns="http://www.w3.org/2000/svg">
<path d="M11.0938 16.9941L5.02637 16.9766C4.48145 16.9766 4.15625 16.8975 3.92773 16.6689C3.70801 16.4404 3.62012 16.124 3.62012 15.5791V11.7559C3.62012 11.2021 3.70801 10.8682 3.92773 10.6396C4.15625 10.4199 4.48145 10.3408 5.04395 10.3408L11.0938 10.3584C11.6387 10.3584 11.9639 10.4375 12.1924 10.666C12.4121 10.8857 12.5 11.2109 12.5 11.7559V15.5967C12.5 16.1328 12.4121 16.458 12.1924 16.6865C11.9639 16.915 11.6387 16.9941 11.0938 16.9941Z" fill="currentColor"/>
<path d="M5.61523 19.8066H19.3965C20.9961 19.8066 22.2529 19.6309 23.1582 18.7256C24.0547 17.8203 24.2217 16.5811 24.2217 14.9814V12.3359C24.2217 10.7275 24.0547 9.48828 23.1582 8.5918C22.2441 7.68652 20.9961 7.51074 19.3965 7.51074H5.58887C4.01562 7.51074 2.75879 7.68652 1.8623 8.5918C0.957031 9.49707 0.790039 10.7363 0.790039 12.3096V14.9814C0.790039 16.5811 0.957031 17.8291 1.85352 18.7256C2.76758 19.6309 4.01562 19.8066 5.61523 19.8066ZM5.36914 18.084C4.46387 18.084 3.61133 17.9521 3.11914 17.4688C2.62695 16.9766 2.5127 16.1416 2.5127 15.2275V12.1074C2.5127 11.1846 2.62695 10.3408 3.11035 9.84863C3.60254 9.35645 4.46387 9.2334 5.38672 9.2334H19.6426C20.5566 9.2334 21.4092 9.35645 21.8926 9.84863C22.3848 10.3408 22.499 11.1758 22.499 12.0898V15.2275C22.499 16.1416 22.3848 16.9766 21.8926 17.4688C21.4092 17.9609 20.5566 18.084 19.6426 18.084H5.36914ZM25.5049 16.0361C26.2344 15.9922 27.21 15.0605 27.21 13.6543C27.21 12.2568 26.2344 11.3164 25.5049 11.2725V16.0361Z" fill="currentColor"/>
</svg>
