<svg width="28" height="28" viewBox="0 0 28 28" fill="none" xmlns="http://www.w3.org/2000/svg">
<path d="M8 14.3345C8 14.5558 8.1978 14.723 8.46978 14.723H12.0549L10.1696 19.1424C9.91621 19.7306 10.6147 20.0436 11.0598 19.5687L16.8331 13.3309C16.9444 13.2067 17 13.0934 17 12.9693C17 12.7427 16.8022 12.5808 16.5302 12.5808H12.9451L14.8304 8.15602C15.0838 7.56785 14.3853 7.25488 13.9402 7.73513L8.17308 13.973C8.06181 14.0917 8 14.205 8 14.3345Z" fill="currentColor"/>
<path d="M10.1565 10.3557L5.04395 10.3408C4.48145 10.3408 4.15625 10.4199 3.92773 10.6396C3.70801 10.8682 3.62012 11.2021 3.62012 11.7559V15.5791C3.62012 16.124 3.70801 16.4404 3.92773 16.6689C4.15625 16.8975 4.48145 16.9766 5.02637 16.9766L10.0007 16.991L10.5412 15.7241H8.46978C7.82493 15.7241 7 15.2729 7 14.3356C7 13.8481 7.24587 13.5018 7.44077 13.2931L10.1565 10.3557Z" fill="currentColor"/>
<path d="M11.1931 9.2334L12.7858 7.51074H5.58887C4.01562 7.51074 2.75879 7.68652 1.8623 8.5918C0.957031 9.49707 0.790039 10.7363 0.790039 12.3096V14.9814C0.790039 16.5811 0.957031 17.8291 1.85352 18.7256C2.76758 19.6309 4.01562 19.8066 5.61523 19.8066H9.1796C9.06527 19.4394 9.11363 19.0672 9.25039 18.7488L9.25127 18.7467L9.53399 18.084H5.36914C4.46387 18.084 3.61133 17.9521 3.11914 17.4688C2.62695 16.9766 2.5127 16.1416 2.5127 15.2275V12.1074C2.5127 11.1846 2.62695 10.3408 3.11035 9.84863C3.60254 9.35645 4.46387 9.2334 5.38672 9.2334H11.1931Z M15.4583 9.2334H19.6426C20.5566 9.2334 21.4092 9.35645 21.8926 9.84863C22.3848 10.3408 22.499 11.1758 22.499 12.0898V15.2275C22.499 16.1416 22.3848 16.9766 21.8926 17.4688C21.4092 17.9609 20.5566 18.084 19.6426 18.084H13.7965L12.2021 19.8066H19.3965C20.9961 19.8066 22.2529 19.6309 23.1582 18.7256C24.0547 17.8203 24.2217 16.5811 24.2217 14.9814V12.3359C24.2217 10.7275 24.0547 9.48828 23.1582 8.5918C22.2441 7.68652 20.9961 7.51074 19.3965 7.51074H15.8261C15.9331 7.87185 15.884 8.23664 15.7497 8.54945L15.4583 9.2334Z M27.21 13.6543C27.21 15.0605 26.2344 15.9922 25.5049 16.0361V11.2725C26.2344 11.3164 27.21 12.2568 27.21 13.6543Z" fill="currentColor"/>
</svg>
