<svg width="32" height="32" viewBox="0 0 32 32" fill="none" xmlns="http://www.w3.org/2000/svg">
<path d="M6.16168 23.2137H22.332C24.2089 23.2137 25.6836 23.0075 26.7458 21.9453C27.7977 20.8831 27.9937 19.429 27.9937 17.5521V14.4479C27.9937 12.5607 27.7977 11.1066 26.7458 10.0547C25.6733 8.99252 24.2089 8.78626 22.332 8.78626H6.13074C4.28476 8.78626 2.81005 8.99252 1.75815 10.0547C0.695941 11.1169 0.5 12.571 0.5 14.417V17.5521C0.5 19.429 0.695941 20.8934 1.74784 21.9453C2.82036 23.0075 4.28476 23.2137 6.16168 23.2137ZM5.87292 21.1924C4.81071 21.1924 3.81038 21.0378 3.23287 20.4706C2.65536 19.893 2.52129 18.9133 2.52129 17.8408V14.1798C2.52129 13.097 2.65536 12.107 3.22255 11.5294C3.80007 10.9519 4.81071 10.8076 5.89355 10.8076H22.6208C23.6933 10.8076 24.6936 10.9519 25.2608 11.5294C25.8383 12.107 25.9724 13.0867 25.9724 14.1592V17.8408C25.9724 18.9133 25.8383 19.893 25.2608 20.4706C24.6936 21.0481 23.6933 21.1924 22.6208 21.1924H5.87292ZM29.4993 18.7896C30.3553 18.738 31.5 17.6449 31.5 15.9948C31.5 14.3551 30.3553 13.2517 29.4993 13.2001V18.7896Z" fill="currentColor" opacity="0.6"/>
</svg>
