<svg width="32" height="32" viewBox="0 0 32 32" fill="none" xmlns="http://www.w3.org/2000/svg">
<path d="M12.7065 10.8138L14.5753 8.79246H6.13059C4.28459 8.79246 2.80985 8.99871 1.75794 10.0609C0.695719 11.1232 0.499775 12.5773 0.499775 14.4233V17.5584C0.499775 19.4353 0.695719 20.8998 1.74763 21.9517C2.82017 23.0139 4.28459 23.2201 6.16153 23.2201H10.3439C10.2097 22.7892 10.2665 22.3526 10.4269 21.9789L10.428 21.9765L10.7597 21.1988H5.87277C4.81055 21.1988 3.8102 21.0441 3.23268 20.4769C2.65516 19.8994 2.52109 18.9197 2.52109 17.8471V14.1861C2.52109 13.1032 2.65516 12.1132 3.22237 11.5357C3.79989 10.9582 4.81055 10.8138 5.8934 10.8138H12.7065Z M17.7111 10.8138H22.6209C23.6934 10.8138 24.6937 10.9582 25.2609 11.5357C25.8385 12.1132 25.9725 13.0929 25.9725 14.1655V17.8471C25.9725 18.9197 25.8385 19.8994 25.2609 20.4769C24.6937 21.0544 23.6934 21.1988 22.6209 21.1988H15.7612L13.8904 23.2201H22.3321C24.209 23.2201 25.6838 23.0139 26.746 21.9517C27.7979 20.8894 27.9939 19.4353 27.9939 17.5584V14.4542C27.9939 12.567 27.7979 11.1129 26.746 10.0609C25.6735 8.99871 24.209 8.79246 22.3321 8.79246H18.1427C18.2682 9.21618 18.2106 9.6442 18.0531 10.0113L17.7111 10.8138Z M31.5002 16.0011C31.5002 17.6512 30.3555 18.7444 29.4995 18.7959V13.2064C30.3555 13.2579 31.5002 14.3614 31.5002 16.0011Z" fill="currentColor" opacity="0.6"/>
<path d="M9.23162 14.5717V13.7735C9.23162 13.1341 9.1285 12.7526 8.8707 12.4947C8.60258 12.2266 8.22103 12.1338 7.58168 12.1338L5.49108 12.1132C4.8311 12.1132 4.44956 12.206 4.18144 12.4638C3.92364 12.7319 3.82051 13.1238 3.82051 13.7735V18.2592C3.82051 18.8986 3.92364 19.2698 4.18144 19.5379C4.44956 19.8061 4.8311 19.8989 5.47046 19.8989L7.58168 19.9195C8.22103 19.9195 8.60258 19.8267 8.8707 19.5586C9.11094 19.3087 9.21685 18.9604 9.23017 18.405C8.53495 18.2924 7.78611 17.7663 7.78611 16.799C7.78611 16.227 8.07459 15.8207 8.30326 15.5758L9.23162 14.5717Z" fill="currentColor"/>
<path d="M8.95975 16.7993C8.95975 17.0589 9.19185 17.2552 9.51098 17.2552H13.7177L11.5056 22.4408C11.2082 23.1309 12.0278 23.4982 12.55 22.941L19.3243 15.6216C19.4548 15.476 19.5201 15.343 19.5201 15.1974C19.5201 14.9315 19.288 14.7415 18.9689 14.7415H14.7622L16.9743 9.54961C17.2717 8.85947 16.4521 8.49223 15.9299 9.05575L9.16284 16.3751C9.03228 16.5144 8.95975 16.6473 8.95975 16.7993Z" fill="currentColor"/>
</svg>
