<svg width="32" height="32" viewBox="0 0 32 32" fill="none" xmlns="http://www.w3.org/2000/svg">
<path d="M12.7061 10.7857L14.5751 8.75346H6.12945C4.28324 8.75346 2.80833 8.96084 1.7563 10.0288C0.693953 11.0968 0.497986 12.5588 0.497986 14.4147V17.5668C0.497986 19.4539 0.693953 20.9263 1.74599 21.9839C2.81865 23.0518 4.28324 23.2592 6.1604 23.2592H10.3432C10.209 22.8259 10.2658 22.3869 10.4263 22.0112L10.4273 22.0088L10.7591 21.227H5.8716C4.80926 21.227 3.80879 21.0714 3.23121 20.5011C2.65362 19.9205 2.51954 18.9355 2.51954 17.8571V14.1763C2.51954 13.0876 2.65362 12.0922 3.22089 11.5115C3.79848 10.9309 4.80926 10.7857 5.89223 10.7857H12.7061Z M17.7113 10.7857H22.6216C23.6943 10.7857 24.6947 10.9309 25.262 11.5115C25.8396 12.0922 25.9737 13.0772 25.9737 14.1555V17.8571C25.9737 18.9355 25.8396 19.9205 25.262 20.5011C24.6947 21.0818 23.6943 21.227 22.6216 21.227H15.7612L13.8902 23.2592H22.3328C24.21 23.2592 25.6849 23.0518 26.7472 21.9839C27.7993 20.9159 27.9952 19.4539 27.9952 17.5668V14.4459C27.9952 12.5484 27.7993 11.0864 26.7472 10.0288C25.6746 8.96084 24.21 8.75346 22.3328 8.75346H18.143C18.2685 9.17947 18.2109 9.60982 18.0533 9.97886L17.7113 10.7857Z M31.502 16.0012C31.502 17.6601 30.3571 18.7592 29.5011 18.8111V13.1912C30.3571 13.2431 31.502 14.3525 31.502 16.0012Z" fill="currentColor" opacity="0.6"/>
<path d="M11.3155 19.917L11.941 18.443H9.51023C8.75349 18.443 7.78543 17.9106 7.78543 16.8049C7.78543 16.2298 8.07396 15.8212 8.30268 15.575L11.5091 12.0886L5.48998 12.0922C4.82988 12.0922 4.44826 12.1855 4.1801 12.4447C3.92225 12.7143 3.81911 13.1083 3.81911 13.7615V18.2719C3.81911 18.9147 3.92225 19.288 4.1801 19.5576C4.44826 19.8272 4.82988 19.9205 5.46935 19.9205L11.3155 19.917Z M18.9692 13.5563H16.5376L17.1611 12.0852L22.9253 12.0818C23.5648 12.0818 23.9464 12.1751 24.2146 12.4447C24.4724 12.7039 24.5755 13.0876 24.5755 13.7304V18.2615C24.5755 18.894 24.4724 19.2776 24.2146 19.5472C23.9464 19.8168 23.5648 19.9101 22.9253 19.9101L16.9714 19.9137L20.1922 16.4153L20.1985 16.4083C20.4329 16.1454 20.694 15.7422 20.694 15.1943C20.694 14.0726 19.7144 13.5563 18.9692 13.5563Z" fill="currentColor"/>
<path d="M8.95892 16.8036C8.95892 17.0646 9.19105 17.262 9.51021 17.262H13.7174L11.505 22.4756C11.2076 23.1695 12.0273 23.5387 12.5496 22.9785L19.3247 15.6196C19.4552 15.4732 19.5205 15.3395 19.5205 15.1931C19.5205 14.9257 19.2884 14.7347 18.9692 14.7347H14.762L16.9744 9.51471C17.2718 8.82083 16.4521 8.45161 15.9299 9.01818L9.16203 16.3771C9.03146 16.5172 8.95892 16.6509 8.95892 16.8036Z" fill="currentColor"/>
</svg>
