<svg width="32" height="32" viewBox="0 0 32 32" fill="none" xmlns="http://www.w3.org/2000/svg">
<path d="M6.16187 23.2136H22.3319C24.2088 23.2136 25.6834 23.0074 26.7456 21.9452C27.7975 20.883 27.9934 19.4289 27.9934 17.552V14.448C27.9934 12.5608 27.7975 11.1067 26.7456 10.0548C25.6731 8.99265 24.2088 8.7864 22.3319 8.7864H6.13093C4.28499 8.7864 2.8103 8.99265 1.75842 10.0548C0.696235 11.117 0.500298 12.5711 0.500298 14.417V17.552C0.500298 19.4289 0.696235 20.8933 1.74811 21.9452C2.82061 23.0074 4.28499 23.2136 6.16187 23.2136ZM5.87312 21.1923C4.81093 21.1923 3.81061 21.0377 3.23311 20.4705C2.65561 19.893 2.52155 18.9133 2.52155 17.8408V14.1798C2.52155 13.097 2.65561 12.107 3.2228 11.5295C3.8003 10.952 4.81093 10.8077 5.89374 10.8077H22.6206C23.6931 10.8077 24.6934 10.952 25.2606 11.5295C25.8381 12.107 25.9722 13.0867 25.9722 14.1592V17.8408C25.9722 18.9133 25.8381 19.893 25.2606 20.4705C24.6934 21.048 23.6931 21.1923 22.6206 21.1923H5.87312ZM29.4991 18.7895C30.355 18.738 31.4997 17.6448 31.4997 15.9948C31.4997 14.3552 30.355 13.2517 29.4991 13.2002V18.7895Z" fill="currentColor" opacity="0.6"/>
<path d="M17.87 19.893H5.47093C4.83156 19.893 4.44999 19.8002 4.18187 19.532C3.92406 19.2639 3.82093 18.8927 3.82093 18.2533V13.7673C3.82093 13.1177 3.92406 12.7258 4.18187 12.4577C4.44999 12.1998 4.83156 12.107 5.49156 12.107H17.87C18.5094 12.107 18.8909 12.1998 19.1591 12.468C19.4169 12.7258 19.52 13.1073 19.52 13.7467V18.2533C19.52 18.8823 19.4169 19.2639 19.1591 19.532C18.8909 19.8002 18.5094 19.893 17.87 19.893Z" fill="currentColor"/>
</svg>
