<svg width="32" height="32" viewBox="0 0 32 32" fill="none" xmlns="http://www.w3.org/2000/svg">
<path d="M12.7062 10.8133L14.5751 8.79179H6.12967C4.28349 8.79179 2.80862 8.99806 1.75661 10.0604C0.694284 11.1227 0.498322 12.577 0.498322 14.4231V17.5585C0.498322 19.4357 0.694284 20.9002 1.74629 21.9522C2.81893 23.0145 4.28349 23.2208 6.16061 23.2208H10.3433C10.2092 22.7898 10.2659 22.3532 10.4264 21.9794L10.4274 21.977L10.7592 21.1993H5.87182C4.8095 21.1993 3.80906 21.0446 3.23148 20.4773C2.65391 19.8998 2.51983 18.92 2.51983 17.8473V14.1859C2.51983 13.103 2.65391 12.1128 3.22117 11.5353C3.79874 10.9577 4.8095 10.8133 5.89245 10.8133H12.7062Z M17.7113 10.8133H22.6215C23.6941 10.8133 24.6945 10.9577 25.2618 11.5353C25.8394 12.1128 25.9735 13.0926 25.9735 14.1653V17.8473C25.9735 18.92 25.8394 19.8998 25.2618 20.4773C24.6945 21.0549 23.6941 21.1993 22.6215 21.1993H15.7612L13.8902 23.2208H22.3327C24.2098 23.2208 25.6847 23.0145 26.747 21.9522C27.799 20.8899 27.995 19.4357 27.995 17.5585V14.4541C27.995 12.5666 27.799 11.1124 26.747 10.0604C25.6744 8.99806 24.2098 8.79179 22.3327 8.79179H18.1429C18.2684 9.21554 18.2108 9.64361 18.0533 10.0107L17.7113 10.8133Z M31.5017 16.0011C31.5017 17.6514 30.3568 18.7446 29.5008 18.7962V13.2061C30.3568 13.2577 31.5017 14.3612 31.5017 16.0011Z" fill="currentColor" opacity="0.6"/>
<path d="M11.4897 12.1303L5.49021 12.1128C4.83012 12.1128 4.44851 12.2057 4.18035 12.4635C3.9225 12.7317 3.81937 13.1236 3.81937 13.7734V18.2599C3.81937 18.8993 3.9225 19.2706 4.18035 19.5388C4.44851 19.8069 4.83012 19.8998 5.46958 19.8998L11.3069 19.9167L11.9411 18.4301H9.51037C8.75364 18.4301 7.7856 17.9005 7.7856 16.8007C7.7856 16.2286 8.07413 15.8222 8.30284 15.5773L11.4897 12.1303Z" fill="currentColor"/>
<path d="M8.95911 16.7994C8.95911 17.059 9.19122 17.2553 9.51039 17.2553H13.7175L11.5051 22.4414C11.2077 23.1316 12.0274 23.4988 12.5497 22.9416L19.3246 15.6216C19.4552 15.4759 19.5205 15.343 19.5205 15.1973C19.5205 14.9314 19.2883 14.7414 18.9692 14.7414H14.762L16.9744 9.549C17.2718 8.85879 16.4522 8.49153 15.9299 9.05509L9.16221 16.3751C9.03164 16.5144 8.95911 16.6474 8.95911 16.7994Z" fill="currentColor"/>
</svg>
