<svg width="32" height="32" viewBox="0 0 32 32" fill="none" xmlns="http://www.w3.org/2000/svg">
<path d="M10.3432 23.2209H6.16046C4.28331 23.2209 2.81873 23.0147 1.74607 21.9523C0.694047 20.9003 0.498081 19.4357 0.498081 17.5586V14.4231C0.498081 12.5769 0.694047 11.1226 1.75639 10.0603C2.80841 8.99795 4.28331 8.79167 6.12952 8.79167H14.5751L12.7061 10.8132H5.89229C4.80933 10.8132 3.79856 10.9576 3.22097 11.5352C2.6537 12.1128 2.51962 13.1029 2.51962 14.1859V17.8474C2.51962 18.92 2.6537 19.8998 3.23129 20.4774C3.80887 21.0447 4.80933 21.1994 5.87167 21.1994H10.7591L10.4274 21.9771L10.4263 21.9795C10.2658 22.3533 10.2091 22.7899 10.3432 23.2209Z M15.7612 21.1994H22.6216C23.6942 21.1994 24.6947 21.055 25.262 20.4774C25.8395 19.8998 25.9736 18.92 25.9736 17.8474V14.1653C25.9736 13.0926 25.8395 12.1128 25.262 11.5352C24.6947 10.9576 23.6942 10.8132 22.6216 10.8132H17.7113L18.0533 10.0106C18.2109 9.64351 18.2685 9.21544 18.143 8.79167H22.3328C24.2099 8.79167 25.6745 8.99795 26.7472 10.0603C27.7992 11.1123 27.9952 12.5666 27.9952 14.454V17.5586C27.9952 19.4357 27.7992 20.89 26.7472 21.9523C25.6848 23.0147 24.2099 23.2209 22.3328 23.2209H13.8902L15.7612 21.1994Z M31.5019 16.0011C31.5019 17.6514 30.3571 18.7447 29.501 18.7962V13.2061C30.3571 13.2576 31.5019 14.3612 31.5019 16.0011Z" fill="currentColor" opacity="0.6"/>
<path d="M8.95899 16.7994C8.95899 17.059 9.19111 17.2553 9.51028 17.2553H13.7175L11.5051 22.4415C11.2077 23.1317 12.0273 23.499 12.5496 22.9417L19.3247 15.6216C19.4552 15.4759 19.5205 15.343 19.5205 15.1973C19.5205 14.9314 19.2884 14.7414 18.9692 14.7414H14.762L16.9744 9.54891C17.2718 8.85869 16.4522 8.49141 15.9299 9.05499L9.16209 16.3751C9.03153 16.5144 8.95899 16.6474 8.95899 16.7994Z" fill="currentColor"/>
</svg>
