<svg width="28" height="28" viewBox="0 0 28 28" fill="none" xmlns="http://www.w3.org/2000/svg">
<path d="M9.1796 19.8066H5.61523C4.01562 19.8066 2.76758 19.6309 1.85352 18.7256C0.957031 17.8291 0.790039 16.5811 0.790039 14.9814V12.3096C0.790039 10.7363 0.957031 9.49707 1.8623 8.5918C2.75879 7.68652 4.01562 7.51074 5.58887 7.51074H12.7858L11.1931 9.2334H5.38672C4.46387 9.2334 3.60254 9.35645 3.11035 9.84863C2.62695 10.3408 2.5127 11.1846 2.5127 12.1074V15.2275C2.5127 16.1416 2.62695 16.9766 3.11914 17.4688C3.61133 17.9521 4.46387 18.084 5.36914 18.084H9.53399L9.25127 18.7467L9.25039 18.7488C9.11363 19.0673 9.06527 19.4394 9.1796 19.8066Z M13.7965 18.084H19.6426C20.5566 18.084 21.4092 17.9609 21.8926 17.4688C22.3848 16.9766 22.499 16.1416 22.499 15.2275V12.0898C22.499 11.1758 22.3848 10.3408 21.8926 9.84863C21.4092 9.35645 20.5566 9.2334 19.6426 9.2334H15.4583L15.7497 8.54945C15.884 8.23664 15.9331 7.87185 15.8261 7.51074H19.3965C20.9961 7.51074 22.2441 7.68652 23.1582 8.5918C24.0547 9.48828 24.2217 10.7275 24.2217 12.3359V14.9814C24.2217 16.5811 24.0547 17.8203 23.1582 18.7256C22.2529 19.6309 20.9961 19.8066 19.3965 19.8066H12.2021L13.7965 18.084Z M27.21 13.6543C27.21 15.0605 26.2344 15.9922 25.5049 16.0361V11.2725C26.2344 11.3164 27.21 12.2568 27.21 13.6543Z" fill="currentColor" opacity="0.4"/>
<path d="M8 14.3345C8 14.5558 8.1978 14.723 8.46978 14.723H12.0549L10.1696 19.1424C9.91621 19.7306 10.6147 20.0436 11.0598 19.5687L16.8331 13.3309C16.9444 13.2067 17 13.0934 17 12.9693C17 12.7427 16.8022 12.5808 16.5302 12.5808H12.9451L14.8304 8.15602C15.0838 7.56785 14.3853 7.25488 13.9402 7.73513L8.17308 13.973C8.06181 14.0917 8 14.205 8 14.3345Z" fill="currentColor"/>
</svg>
