<svg width="32" height="32" viewBox="0 0 32 32" fill="none" xmlns="http://www.w3.org/2000/svg">
<path d="M11.5207 15.0402H20.4793C21.4127 15.0402 22.3079 14.6694 22.9679 14.0093C23.628 13.3493 23.9988 12.4541 23.9988 11.5207C23.9988 10.5873 23.628 9.6921 22.9679 9.03207C22.3079 8.37205 21.4127 8.00125 20.4793 8.00125H11.5207C10.5873 8.00125 9.6921 8.37205 9.03207 9.03207C8.37205 9.6921 8.00125 10.5873 8.00125 11.5207C8.00125 12.4541 8.37205 13.3493 9.03207 14.0093C9.6921 14.6694 10.5873 15.0402 11.5207 15.0402ZM11.5207 9.28105H20.4793C21.0733 9.28105 21.643 9.51701 22.063 9.93703C22.483 10.357 22.719 10.9267 22.719 11.5207C22.719 12.1147 22.483 12.6844 22.063 13.1044C21.643 13.5244 21.0733 13.7604 20.4793 13.7604H11.5207C10.9267 13.7604 10.357 13.5244 9.93703 13.1044C9.51701 12.6844 9.28105 12.1147 9.28105 11.5207C9.28105 10.9267 9.51701 10.357 9.93703 9.93703C10.357 9.51701 10.9267 9.28105 11.5207 9.28105ZM11.5207 13.1205C11.8371 13.1205 12.1464 13.0266 12.4095 12.8508C12.6726 12.6751 12.8776 12.4252 12.9987 12.1329C13.1198 11.8406 13.1514 11.5189 13.0897 11.2086C13.028 10.8983 12.8756 10.6132 12.6519 10.3895C12.4282 10.1658 12.1431 10.0134 11.8328 9.95169C11.5225 9.88996 11.2008 9.92164 10.9085 10.0427C10.6162 10.1638 10.3663 10.3688 10.1906 10.6319C10.0148 10.895 9.92095 11.2043 9.92095 11.5207C9.92095 11.945 10.0895 12.3519 10.3895 12.6519C10.6895 12.9519 11.0964 13.1205 11.5207 13.1205ZM20.4793 16.9599H11.5207C10.5873 16.9599 9.6921 17.3306 9.03207 17.9907C8.37205 18.6507 8.00125 19.5459 8.00125 20.4793C8.00125 21.4127 8.37205 22.3079 9.03207 22.9679C9.6921 23.628 10.5873 23.9988 11.5207 23.9988H20.4793C21.4127 23.9988 22.3079 23.628 22.9679 22.9679C23.628 22.3079 23.9988 21.4127 23.9988 20.4793C23.9988 19.5459 23.628 18.6507 22.9679 17.9907C22.3079 17.3306 21.4127 16.9599 20.4793 16.9599ZM21.3969 22.0791C21.0805 22.0791 20.7712 21.9852 20.5081 21.8094C20.2451 21.6337 20.04 21.3838 19.9189 21.0915C19.7979 20.7992 19.7662 20.4775 19.8279 20.1672C19.8896 19.8569 20.042 19.5718 20.2657 19.3481C20.4895 19.1244 20.7745 18.972 21.0848 18.9103C21.3951 18.8486 21.7168 18.8802 22.0091 19.0013C22.3014 19.1224 22.5513 19.3274 22.7271 19.5905C22.9028 19.8536 22.9967 20.1629 22.9967 20.4793C22.9967 20.6894 22.9553 20.8974 22.8749 21.0915C22.7945 21.2856 22.6767 21.4619 22.5281 21.6105C22.3796 21.759 22.2032 21.8769 22.0091 21.9573C21.815 22.0377 21.607 22.0791 21.3969 22.0791Z" fill="currentColor"/>
</svg>
