<svg width="32" height="32" viewBox="0 0 32 32" fill="none" xmlns="http://www.w3.org/2000/svg">
<path d="M15.9961 24C20.3809 24 24 20.3791 24 16C24 11.6209 20.3731 8 15.9884 8C11.6114 8 8 11.6209 8 16C8 20.3791 11.6191 24 15.9961 24ZM13.9546 14.4217C13.9159 14.1277 13.7844 13.8646 13.5834 13.6634C14.2407 12.0077 15.2769 10.5145 16.6225 9.28433C16.7076 9.29207 16.8004 9.30754 16.8932 9.31528C15.942 10.9787 15.3697 12.8279 15.2228 14.7466C14.7898 14.6692 14.3644 14.5609 13.9546 14.4217ZM10.4282 12.2321C11.4877 10.6847 13.1658 9.58607 15.0913 9.31528C14.0164 10.4913 13.1658 11.8375 12.5935 13.2998C12.3693 13.3153 12.1682 13.3849 11.9981 13.4932C11.4335 13.1373 10.9077 12.7118 10.4282 12.2321ZM18.4708 12.2785C18.463 11.4662 18.5636 10.6538 18.7878 9.87234C20.2185 10.5377 21.3939 11.6905 22.0744 13.1141C21.3243 13.6867 20.4891 14.1199 19.6075 14.4217C19.3755 14.1431 19.0353 13.9652 18.6564 13.9574C18.5404 13.4081 18.4785 12.8511 18.4708 12.2785ZM17.4113 12.2785C17.419 12.9981 17.5041 13.7099 17.6665 14.3907C17.5505 14.5222 17.4577 14.6847 17.4113 14.8549C17.2102 14.8704 17.0169 14.8781 16.8159 14.8781C16.638 14.8781 16.4524 14.8781 16.2745 14.8627C16.3983 13.2147 16.8545 11.6209 17.6201 10.1896C17.4732 10.8627 17.4036 11.5667 17.4113 12.2785ZM9.26051 16C9.26051 15.0019 9.47704 14.058 9.87917 13.1992C10.3509 13.648 10.869 14.0503 11.4181 14.3907C11.4103 14.4526 11.4026 14.5068 11.4026 14.5687C11.4026 14.9865 11.6037 15.3656 11.9207 15.5977C11.7738 16.3482 11.6965 17.1219 11.6887 17.8956C10.8304 17.4778 10.0184 16.9439 9.26825 16.3095C9.26051 16.2089 9.26051 16.1006 9.26051 16ZM22.7395 16C22.7395 16.6112 22.6544 17.207 22.4998 17.7718C22.0667 18.0039 21.6259 18.205 21.1774 18.3752C20.4814 17.7331 19.9091 16.9903 19.4683 16.1702C19.6694 15.9845 19.8163 15.7369 19.8705 15.4507C20.7985 15.1489 21.6723 14.7157 22.4766 14.1509C22.6467 14.7389 22.7395 15.3578 22.7395 16ZM12.7482 18.3598C12.725 17.501 12.7946 16.6499 12.9493 15.8221C13.2122 15.7679 13.4519 15.6286 13.6298 15.4352C14.1324 15.5977 14.6506 15.7292 15.1841 15.8143C15.1919 16.766 15.3001 17.7021 15.5012 18.6151C15.3697 18.7234 15.2615 18.8549 15.1841 19.0019C14.3567 18.8781 13.537 18.6615 12.7482 18.3598ZM16.8159 15.9381C17.0633 15.9381 17.3108 15.9304 17.5582 15.9072C17.7516 16.2089 18.0686 16.4178 18.4321 16.4797C18.8574 17.3075 19.3987 18.0658 20.0483 18.7389C19.2131 18.9632 18.3548 19.0948 17.4964 19.1335C17.334 18.7234 16.9705 18.4217 16.5375 18.352C16.3596 17.5629 16.2591 16.7505 16.2513 15.9226C16.4369 15.9381 16.6303 15.9381 16.8159 15.9381ZM9.52344 17.8491C10.2117 18.3366 10.9541 18.7466 11.7119 19.087C11.7583 19.8917 11.8821 20.6886 12.0909 21.47C10.869 20.5957 9.94877 19.3191 9.52344 17.8491ZM15.9961 22.7466C15.0991 22.7466 14.2407 22.5609 13.4519 22.236C13.1194 21.3617 12.9029 20.4487 12.8101 19.5126C13.5602 19.7679 14.3335 19.9536 15.1068 20.0619C15.2847 20.5338 15.7255 20.8665 16.2513 20.8897C16.5065 21.4932 16.8159 22.0812 17.1716 22.6383C16.7927 22.7079 16.3983 22.7466 15.9961 22.7466ZM17.2412 20.4952C17.3262 20.4101 17.3958 20.3017 17.45 20.1934C18.6409 20.147 19.8163 19.9458 20.9609 19.5745C21.1232 19.706 21.2856 19.8221 21.448 19.9381C20.6515 21.0368 19.5379 21.8878 18.2465 22.352C17.8521 21.764 17.5196 21.1451 17.2412 20.4952Z" fill="currentColor"/>
</svg>
