<svg width="32" height="32" viewBox="0 0 32 32" fill="none" xmlns="http://www.w3.org/2000/svg">
<path d="M23.9919 23.0727C24.2951 23.3664 24.7784 23.357 25.0627 23.0727C25.3565 22.7694 25.3565 22.2956 25.0627 22.0113L8.00476 4.95332C7.71098 4.65954 7.22767 4.65006 6.9339 4.95332C6.64012 5.23762 6.6496 5.7304 6.9339 6.0147L23.9919 23.0727ZM15.7377 11.0373C15.8514 11.0184 15.9841 11.0089 16.1073 11.0089C19.6042 11.0752 22.5514 12.4209 24.8827 14.809C25.0817 15.008 25.3849 14.9986 25.5839 14.7901L26.9107 13.4539C27.1097 13.2643 27.1002 13.0179 26.9486 12.8379C24.6268 10.0518 20.4097 8.0048 16.0031 8.0048C15.0364 8.0048 14.0698 8.09956 13.0274 8.31753L15.7377 11.0373ZM8.98085 9.75798C7.40773 10.573 6.05257 11.6344 5.04804 12.8379C4.89642 13.0179 4.89642 13.2643 5.08595 13.4539L6.41268 14.7901C6.62117 14.9986 6.9339 14.9986 7.1329 14.7806C8.31749 13.5297 9.66317 12.582 11.1889 11.9566L8.98085 9.75798ZM22.5514 17.8416L23.1105 17.2824C23.3001 17.1024 23.3095 16.8749 23.1484 16.6854C22.1723 15.4819 20.5045 14.4489 18.7039 13.994L22.5514 17.8416ZM13.2453 14.0035C11.4164 14.5058 9.86218 15.4819 8.84818 16.6854C8.68708 16.8749 8.70603 17.1119 8.88609 17.2824L10.3739 18.7418C10.6014 18.9598 10.9046 18.9409 11.1226 18.7039C12.2503 17.472 14.013 16.6286 15.823 16.5812L13.2453 14.0035ZM16.0031 19.1493C14.6479 19.1493 13.4254 19.8601 12.7715 20.7509C12.6578 20.9215 12.7052 21.13 12.8758 21.2911L15.1975 23.5276C15.5766 23.8971 15.7756 24.0014 16.0031 24.0014C16.24 24.0014 16.439 23.8877 16.818 23.5276L19.1398 21.2911C19.3104 21.13 19.3483 20.8646 19.1967 20.6751C18.5333 19.8317 17.3393 19.1493 16.0031 19.1493Z" fill="currentColor"/>
</svg>
