<svg width="32" height="32" viewBox="0 0 32 32" fill="none" xmlns="http://www.w3.org/2000/svg">
<path d="M6.16213 23.2134H22.3317C24.2085 23.2134 25.6832 23.0072 26.7453 21.945C27.7972 20.8828 27.9931 19.4288 27.9931 17.552V14.448C27.9931 12.5609 27.7972 11.1068 26.7453 10.055C25.6729 8.99284 24.2085 8.78659 22.3317 8.78659H6.13119C4.2853 8.78659 2.81065 8.99284 1.7588 10.055C0.696642 11.1172 0.50071 12.5712 0.50071 14.4171V17.552C0.50071 19.4288 0.696642 20.8932 1.74849 21.945C2.82096 23.0072 4.2853 23.2134 6.16213 23.2134ZM5.87338 21.1922C4.81122 21.1922 3.81094 21.0375 3.23345 20.4704C2.65597 19.8929 2.52191 18.9132 2.52191 17.8407V14.1799C2.52191 13.0971 2.65597 12.1071 3.22314 11.5296C3.80062 10.9522 4.81122 10.8078 5.89401 10.8078H22.6205C23.6929 10.8078 24.6932 10.9522 25.2604 11.5296C25.8379 12.1071 25.9719 13.0868 25.9719 14.1593V17.8407C25.9719 18.9132 25.8379 19.8929 25.2604 20.4704C24.6932 21.0478 23.6929 21.1922 22.6205 21.1922H5.87338ZM29.4987 18.7895C30.3546 18.7379 31.4993 17.6448 31.4993 15.9948C31.4993 14.3552 30.3546 13.2518 29.4987 13.2002V18.7895Z" fill="currentColor" opacity="0.6"/>
<path d="M12.5901 19.9135L5.47119 19.8929C4.83183 19.8929 4.45028 19.8001 4.18216 19.5319C3.92436 19.2638 3.82124 18.8926 3.82124 18.2532V13.7674C3.82124 13.1177 3.92436 12.7259 4.18216 12.4577C4.45028 12.1999 4.83183 12.1071 5.49182 12.1071L12.5901 12.1278C13.2294 12.1278 13.611 12.2206 13.8791 12.4887C14.1369 12.7465 14.24 13.128 14.24 13.7674V18.2738C14.24 18.9029 14.1369 19.2844 13.8791 19.5526C13.611 19.8207 13.2294 19.9135 12.5901 19.9135Z" fill="currentColor"/>
</svg>
