<svg width="32" height="32" viewBox="0 0 32 32" fill="none" xmlns="http://www.w3.org/2000/svg">
<path d="M12.7066 10.8139L14.5753 8.79269H6.13092C4.28498 8.79269 2.81029 8.99894 1.75841 10.0611C0.69622 11.1233 0.500282 12.5774 0.500282 14.4233V17.5583C0.500282 19.4352 0.69622 20.8996 1.7481 21.9515C2.8206 23.0137 4.28498 23.2199 6.16186 23.2199H10.3441C10.2099 22.789 10.2667 22.3524 10.4271 21.9787L10.4281 21.9763L10.7599 21.1987H5.87311C4.81092 21.1987 3.8106 21.044 3.2331 20.4768C2.6556 19.8993 2.52154 18.9196 2.52154 17.8471V14.1861C2.52154 13.1033 2.6556 12.1133 3.22279 11.5358C3.80029 10.9583 4.81092 10.8139 5.89373 10.8139H12.7066Z M17.7111 10.8139H22.6206C23.6931 10.8139 24.6935 10.9583 25.2606 11.5358C25.8381 12.1133 25.9722 13.093 25.9722 14.1655V17.8471C25.9722 18.9196 25.8381 19.8993 25.2606 20.4768C24.6935 21.0543 23.6931 21.1987 22.6206 21.1987H15.7612L13.8905 23.2199H22.3319C24.2088 23.2199 25.6835 23.0137 26.7456 21.9515C27.7975 20.8893 27.9935 19.4352 27.9935 17.5583V14.4543C27.9935 12.5671 27.7975 11.113 26.7456 10.0611C25.6731 8.99894 24.2088 8.79269 22.3319 8.79269H18.1427C18.2681 9.2164 18.2105 9.64441 18.053 10.0115L17.7111 10.8139Z M31.4997 16.0011C31.4997 17.6512 30.355 18.7443 29.4991 18.7958V13.2065C30.355 13.258 31.4997 14.3615 31.4997 16.0011Z" fill="currentColor" opacity="0.6"/>
<path d="M11.3147 19.8993L11.9416 18.4297H9.51119C8.75456 18.4297 7.78665 17.9003 7.78665 16.8005C7.78665 16.2285 8.07514 15.8222 8.30382 15.5773L11.5064 12.1133H5.49154C4.83153 12.1133 4.44997 12.2061 4.18185 12.464C3.92403 12.7321 3.82091 13.124 3.82091 13.7736V18.2596C3.82091 18.899 3.92403 19.2702 4.18185 19.5383C4.44997 19.8065 4.83153 19.8993 5.47091 19.8993H11.3147Z M18.9688 13.5695H16.5375L17.158 12.1133H17.87C18.5094 12.1133 18.8909 12.2061 19.1591 12.4743C19.4036 12.7188 19.509 13.0747 19.5192 13.6564C19.3333 13.5981 19.1445 13.5695 18.9688 13.5695Z M19.52 17.1387L16.965 19.8993H17.87C18.5094 19.8993 18.8909 19.8065 19.1591 19.5383C19.4169 19.2702 19.52 18.8887 19.52 18.2596V17.1387Z" fill="currentColor"/>
<path d="M8.95999 16.7993C8.95999 17.0589 9.19208 17.2551 9.5112 17.2551H13.7178L11.5057 22.4406C11.2083 23.1307 12.0279 23.4979 12.5501 22.9407L19.3242 15.6216C19.4547 15.476 19.52 15.3431 19.52 15.1974C19.52 14.9315 19.2879 14.7416 18.9688 14.7416H14.7622L16.9743 9.54982C17.2717 8.8597 16.4521 8.49248 15.9299 9.05597L9.16307 16.3751C9.03252 16.5144 8.95999 16.6473 8.95999 16.7993Z" fill="currentColor"/>
</svg>
