<svg width="32" height="32" viewBox="0 0 32 32" fill="none" xmlns="http://www.w3.org/2000/svg">
<path d="M6.16082 23.2144H22.3326C24.2096 23.2144 25.6845 23.0081 26.7468 21.9458C27.7988 20.8835 27.9947 19.4293 27.9947 17.5522V14.4478C27.9947 12.5604 27.7988 11.1062 26.7468 10.0542C25.6742 8.9919 24.2096 8.78563 22.3326 8.78563H6.12987C4.28374 8.78563 2.80889 8.9919 1.7569 10.0542C0.694601 11.1165 0.498642 12.5707 0.498642 14.4169V17.5522C0.498642 19.4293 0.694601 20.8938 1.74659 21.9458C2.8192 23.0081 4.28374 23.2144 6.16082 23.2144ZM5.87203 21.1929C4.80973 21.1929 3.80931 21.0382 3.23175 20.471C2.65419 19.8934 2.52011 18.9136 2.52011 17.841V14.1796C2.52011 13.0967 2.65419 12.1066 3.22144 11.5291C3.799 10.9515 4.80973 10.8071 5.89266 10.8071H22.6213C23.694 10.8071 24.6944 10.9515 25.2616 11.5291C25.8392 12.1066 25.9733 13.0864 25.9733 14.159V17.841C25.9733 18.9136 25.8392 19.8934 25.2616 20.471C24.6944 21.0485 23.694 21.1929 22.6213 21.1929H5.87203ZM29.5005 18.7898C30.3565 18.7383 31.5014 17.645 31.5014 15.9948C31.5014 14.355 30.3565 13.2514 29.5005 13.1999V18.7898Z" fill="currentColor" opacity="0.6"/>
<path d="M22.925 19.8831L5.4698 19.8934C4.83036 19.8934 4.44876 19.8006 4.1806 19.5324C3.92276 19.2643 3.81963 18.893 3.81963 18.2535V13.7671C3.81963 13.1173 3.92276 12.7254 4.1806 12.4573C4.44876 12.1994 4.83036 12.1066 5.49043 12.1066L22.925 12.0963C23.5645 12.0963 23.9461 12.1891 24.2142 12.4573C24.4721 12.7151 24.5752 13.0967 24.5752 13.7362V18.2432C24.5752 18.8723 24.4721 19.2539 24.2142 19.5221C23.9461 19.7903 23.5645 19.8831 22.925 19.8831Z" fill="currentColor"/>
</svg>
