<svg width="32" height="32" viewBox="0 0 32 32" fill="none" xmlns="http://www.w3.org/2000/svg">
<path d="M8.46817 15.602C8.46817 16.9062 8.7961 18.2552 9.40724 19.5296C9.20601 19.7681 9.16874 20.2079 9.38488 20.6401L10.8158 23.5542C10.9574 23.8449 11.2779 24.0014 11.5909 24.0014C11.9561 24.0014 12.3139 23.7778 12.3511 23.3232L10.7115 19.9917C10.1674 18.8812 9.76498 17.2938 9.76498 15.6094C9.76498 11.9277 12.2766 9.44586 15.9956 9.44586C19.7146 9.44586 22.2337 11.9277 22.2337 15.6094C22.2337 17.2938 21.8238 18.8812 21.2797 19.9917L19.6401 23.3232C19.6773 23.7778 20.0351 24.0014 20.4077 24.0014C20.7133 24.0014 21.0338 23.8449 21.1828 23.5542L22.6063 20.6401C22.8225 20.2079 22.7927 19.7681 22.5914 19.5296C23.2026 18.2552 23.5305 16.9062 23.5305 15.602C23.5305 11.3314 20.5717 8 15.9956 8C11.4195 8 8.46817 11.3314 8.46817 15.602ZM12.5449 18.3595C12.2692 17.7931 11.74 17.6664 11.3375 17.8304C10.8904 18.0167 10.5848 18.5533 10.9127 19.239L12.7759 23.0176C13.0741 23.6287 13.6256 23.8449 14.1473 23.5766C14.5945 23.353 14.751 22.8462 14.4901 22.3096L12.5449 18.3595ZM19.4463 18.3595L17.5011 22.3096C17.2402 22.8462 17.4042 23.353 17.8514 23.5766C18.3731 23.8449 18.9171 23.6287 19.2227 23.0176L21.0785 19.239C21.4139 18.5533 21.1008 18.0167 20.6537 17.8304C20.2512 17.6664 19.7295 17.7931 19.4463 18.3595Z" fill="currentColor"/>
</svg>
