<svg width="32" height="32" viewBox="0 0 32 32" fill="none" xmlns="http://www.w3.org/2000/svg">
<path d="M13.2974 23.8768C13.9565 23.8768 14.4399 23.3846 14.4399 22.7342V9.31331C14.4399 8.65413 13.9565 8.12679 13.2798 8.12679C12.8315 8.12679 12.5063 8.31136 12.0317 8.77718L8.35791 12.2137C8.30518 12.2664 8.23486 12.2928 8.15576 12.2928H5.66846C4.36768 12.2928 3.66455 13.0135 3.66455 14.3758V17.6453C3.66455 19.0076 4.36768 19.7283 5.66846 19.7283H8.15576C8.23486 19.7283 8.29639 19.7547 8.35791 19.8074L12.0317 23.2703C12.4712 23.6922 12.8403 23.8768 13.2974 23.8768Z" fill="currentColor"/>
<path d="M17.5688 19.9129C17.9468 20.159 18.439 20.0711 18.7114 19.6844C19.4233 18.7352 19.8452 17.3905 19.8452 15.993C19.8452 14.5955 19.4233 13.2596 18.7114 12.3016C18.439 11.9149 17.9468 11.827 17.5688 12.0819C17.1382 12.3631 17.0591 12.8817 17.4019 13.3914C17.8853 14.0858 18.1577 15.0174 18.1577 15.993C18.1577 16.9686 17.8853 17.8914 17.4019 18.5946C17.0591 19.1043 17.1382 19.6229 17.5688 19.9129Z" fill="currentColor"/>
<path d="M21.1108 22.2684C21.5151 22.5145 22.0073 22.4266 22.2886 22.0135C23.4312 20.3963 24.0991 18.2254 24.0991 15.993C24.0991 13.7606 23.4399 11.5809 22.2886 9.97249C22.0073 9.5594 21.5151 9.46273 21.1108 9.71761C20.689 9.98128 20.6274 10.5086 20.9438 10.9744C21.8755 12.3455 22.4116 14.1297 22.4116 15.993C22.4116 17.8475 21.8667 19.6317 20.9438 21.0116C20.6362 21.4774 20.689 21.9959 21.1108 22.2684Z" fill="currentColor" opacity="0.2"/>
<path d="M24.6704 24.6502C25.0571 24.9051 25.5757 24.7908 25.8569 24.369C27.4038 22.0487 28.3355 19.1658 28.3355 16.0018C28.3355 12.8289 27.3862 9.95491 25.8569 7.62581C25.5757 7.19514 25.0571 7.08967 24.6704 7.34456C24.2485 7.61702 24.187 8.13557 24.4771 8.60139C25.8218 10.6492 26.6567 13.1893 26.6567 16.0018C26.6567 18.7967 25.8218 21.3543 24.4771 23.3934C24.187 23.8592 24.2485 24.3778 24.6704 24.6502Z" fill="currentColor" opacity="0.2"/>
</svg>
