<svg width="32" height="32" viewBox="0 0 32 32" fill="none" xmlns="http://www.w3.org/2000/svg">
<path d="M13.2974 23.875C13.9565 23.875 14.4399 23.3828 14.4399 22.7324V9.31152C14.4399 8.65234 13.9565 8.125 13.2798 8.125C12.8315 8.125 12.5063 8.30957 12.0317 8.77539L8.35791 12.2119C8.30518 12.2646 8.23486 12.291 8.15576 12.291H5.66846C4.36768 12.291 3.66455 13.0117 3.66455 14.374V17.6436C3.66455 19.0059 4.36768 19.7266 5.66846 19.7266H8.15576C8.23486 19.7266 8.29639 19.7529 8.35791 19.8057L12.0317 23.2686C12.4712 23.6904 12.8403 23.875 13.2974 23.875Z" fill="currentColor"/>
<path d="M17.5688 19.9189C17.9468 20.165 18.439 20.0771 18.7114 19.6903C19.4233 18.7411 19.8452 17.3964 19.8452 15.9989C19.8452 14.6015 19.4233 13.2655 18.7114 12.3075C18.439 11.9208 17.9468 11.8329 17.5688 12.0878C17.1382 12.3691 17.0591 12.8876 17.4019 13.3974C17.8853 14.0917 18.1577 15.0234 18.1577 15.9989C18.1577 16.9745 17.8853 17.8974 17.4019 18.6005C17.0591 19.1103 17.1382 19.6288 17.5688 19.9189Z" fill="currentColor" opacity="0.2"/>
<path d="M21.1108 22.2773C21.5151 22.5234 22.0073 22.4355 22.2886 22.0224C23.4312 20.4053 24.0991 18.2344 24.0991 16.0019C24.0991 13.7695 23.4399 11.5898 22.2886 9.98142C22.0073 9.56834 21.5151 9.47166 21.1108 9.72654C20.689 9.99021 20.6274 10.5176 20.9438 10.9834C21.8755 12.3545 22.4116 14.1387 22.4116 16.0019C22.4116 17.8564 21.8667 19.6406 20.9438 21.0205C20.6362 21.4863 20.689 22.0049 21.1108 22.2773Z" fill="currentColor" opacity="0.2"/>
<path d="M24.6704 24.6539C25.0571 24.9088 25.5757 24.7945 25.8569 24.3727C27.4038 22.0524 28.3355 19.1695 28.3355 16.0055C28.3355 12.8326 27.3862 9.9586 25.8569 7.6295C25.5757 7.19884 25.0571 7.09337 24.6704 7.34825C24.2485 7.62071 24.187 8.13927 24.4771 8.60509C25.8218 10.6529 26.6567 13.193 26.6567 16.0055C26.6567 18.8004 25.8218 21.358 24.4771 23.3971C24.187 23.8629 24.2485 24.3815 24.6704 24.6539Z" fill="currentColor" opacity="0.2"/>
</svg>
