<svg width="32" height="32" viewBox="0 0 32 32" fill="none" xmlns="http://www.w3.org/2000/svg">
<path d="M20.1319 18.1359V9.31237C20.1319 8.65389 19.649 8.12711 18.973 8.12711C18.5252 8.12711 18.2092 8.32027 17.7263 8.77681L14.3198 11.9287C14.2847 11.9638 14.2408 11.9902 14.1969 11.9902H13.9774L20.1319 18.1359ZM23.2048 24.7031C23.477 24.9665 23.9247 24.9753 24.1881 24.7031C24.4603 24.4221 24.4603 23.9832 24.1881 23.711L8.80617 8.33782C8.53401 8.06566 8.08624 8.05688 7.80529 8.33782C7.54191 8.60121 7.54191 9.05776 7.80529 9.32115L23.2048 24.7031ZM11.3259 19.7163H13.8018C13.8808 19.7163 13.951 19.7426 14.0037 19.7953L17.7263 23.2544C18.1653 23.6759 18.534 23.8602 18.9818 23.8602C19.491 23.8602 19.8773 23.5969 20.0529 23.0789L9.82461 12.8593C9.52611 13.193 9.36807 13.6846 9.36807 14.3343V17.6706C9.36807 19.0402 10.0353 19.7163 11.3259 19.7163Z" fill="currentColor"/>
</svg>
