<svg width="32" height="32" viewBox="0 0 32 32" fill="none" xmlns="http://www.w3.org/2000/svg">
<path d="M13.2974 23.8805C13.9565 23.8805 14.4399 23.3883 14.4399 22.7379V9.317C14.4399 8.65782 13.9565 8.13048 13.2798 8.13048C12.8315 8.13048 12.5063 8.31505 12.0317 8.78087L8.35791 12.2174C8.30518 12.2701 8.23486 12.2965 8.15576 12.2965H5.66846C4.36768 12.2965 3.66455 13.0172 3.66455 14.3795V17.649C3.66455 19.0113 4.36768 19.732 5.66846 19.732H8.15576C8.23486 19.732 8.29639 19.7584 8.35791 19.8111L12.0317 23.274C12.4712 23.6959 12.8403 23.8805 13.2974 23.8805Z" fill="currentColor"/>
<path d="M17.5688 19.9166C17.9468 20.1627 18.439 20.0748 18.7114 19.6881C19.4233 18.7389 19.8452 17.3942 19.8452 15.9967C19.8452 14.5992 19.4233 13.2633 18.7114 12.3053C18.439 11.9186 17.9468 11.8307 17.5688 12.0856C17.1382 12.3668 17.0591 12.8854 17.4019 13.3951C17.8853 14.0895 18.1577 15.0211 18.1577 15.9967C18.1577 16.9723 17.8853 17.8951 17.4019 18.5983C17.0591 19.108 17.1382 19.6266 17.5688 19.9166Z" fill="currentColor"/>
<path d="M21.1108 22.2721C21.5151 22.5182 22.0073 22.4303 22.2886 22.0172C23.4312 20.4 24.0991 18.2291 24.0991 15.9967C24.0991 13.7643 23.4399 11.5846 22.2886 9.97618C22.0073 9.5631 21.5151 9.46642 21.1108 9.7213C20.689 9.98497 20.6274 10.5123 20.9438 10.9781C21.8755 12.3492 22.4116 14.1334 22.4116 15.9967C22.4116 17.8512 21.8667 19.6354 20.9438 21.0152C20.6362 21.4811 20.689 21.9996 21.1108 22.2721Z" fill="currentColor"/>
<path d="M24.6704 24.6539C25.0571 24.9088 25.5757 24.7945 25.8569 24.3727C27.4038 22.0524 28.3355 19.1695 28.3355 16.0055C28.3355 12.8326 27.3862 9.9586 25.8569 7.6295C25.5757 7.19884 25.0571 7.09337 24.6704 7.34825C24.2485 7.62071 24.187 8.13927 24.4771 8.60509C25.8218 10.6529 26.6567 13.193 26.6567 16.0055C26.6567 18.8004 25.8218 21.358 24.4771 23.3971C24.187 23.8629 24.2485 24.3815 24.6704 24.6539Z" fill="currentColor"/>
</svg>
