<svg width="32" height="32" viewBox="0 0 32 32" fill="none" xmlns="http://www.w3.org/2000/svg">
<path d="M6.44941 14.8182C6.6478 15.0354 6.95955 15.026 7.16739 14.7993C9.50083 12.3336 12.5711 11.0299 16.0004 11.0299C19.4581 11.0299 22.5379 12.3336 24.8618 14.8182C25.0602 15.0165 25.3625 15.0071 25.5609 14.7993L26.8835 13.4672C27.0725 13.2783 27.0725 13.0327 26.9213 12.8532C24.6446 10.0474 20.4028 8.03513 16.0004 8.03513C11.6075 8.03513 7.35633 10.0379 5.08902 12.8532C4.93787 13.0327 4.93787 13.2783 5.11736 13.4672L6.44941 14.8182Z" fill="currentColor" opacity="0.2"/>
<path d="M10.3978 18.7482C10.6245 18.9654 10.9268 18.9466 11.1441 18.7104C12.2967 17.4539 14.1389 16.5659 16.0094 16.5753C17.8894 16.5659 19.7315 17.4728 20.9124 18.7387C21.1108 18.9654 21.3942 18.956 21.6115 18.7387L23.0947 17.2839C23.2742 17.1138 23.2931 16.8776 23.1325 16.6887C21.6588 14.9032 18.9663 13.6184 16.0094 13.6184C13.043 13.6184 10.3506 14.9032 8.87681 16.6887C8.71621 16.8776 8.7351 17.1044 8.9146 17.2839L10.3978 18.7482Z" fill="currentColor" opacity="0.2"/>
<path d="M16.0106 23.9819C16.2374 23.9819 16.4358 23.878 16.8231 23.5095L19.1376 21.28C19.3077 21.1194 19.3455 20.8549 19.1943 20.6659C18.533 19.8251 17.3332 19.1449 16.0106 19.1449C14.6503 19.1449 13.4316 19.8535 12.7797 20.7415C12.6664 20.9116 12.723 21.1194 12.8836 21.28L15.1982 23.5095C15.5761 23.8685 15.7839 23.9819 16.0106 23.9819Z" fill="currentColor" opacity="0.2"/>
</svg>
